<svg width="166" height="168" viewBox="0 0 166 168" fill="none" xmlns="http://www.w3.org/2000/svg">
<path d="M2.88608 141.987C9.19648 157.385 19.4857 160.591 26.7198 157.385C40.7103 151.187 77.0528 144.261 114.378 160.541C163.813 182.103 174.331 149.571 158.554 116.665C142.777 83.7585 137.429 50.4812 155.617 32.1473C173.805 13.8134 150.004 -14.8675 107.736 14.9873C80.4214 34.2805 60.3753 29.9845 49.6107 24.5304C39.4653 19.3901 28.1824 14.0161 17.6115 18.2121C4.78477 23.3037 -0.269348 34.3425 19.2459 59.0033C46.9007 93.9497 -11.2595 107.47 2.88608 141.987Z" fill="#DEE9FF"/>
<path d="M28.58 66.9731H126.789V142.502C126.789 142.656 126.728 142.803 126.619 142.912C126.51 143.021 126.363 143.082 126.209 143.082H29.16C29.0061 143.082 28.8586 143.021 28.7498 142.912C28.6411 142.803 28.58 142.656 28.58 142.502V66.9731Z" fill="#A2BDFF"/>
<path d="M102.152 37.3752H56.4864L28.58 66.973H126.789L102.152 37.3752Z" fill="#418DF9"/>
<path d="M37.882 25.5361L56.4863 37.3753L28.5798 66.9731L7.43848 50.9057L37.882 25.5361Z" fill="#699CFF"/>
<path d="M120.756 25.5361L102.151 37.3753L126.789 66.9731L151.199 50.9057L120.756 25.5361Z" fill="#699CFF"/>
<path d="M68.4837 26.1415C69.0087 25.8926 69.4171 25.4504 69.6237 24.9073C69.8303 24.3643 69.819 23.7624 69.5922 23.2275L61.2229 3.49263C61.1043 3.21309 60.9305 2.96042 60.7118 2.74979C60.4931 2.53917 60.2341 2.37494 59.9503 2.26699C59.6665 2.15905 59.3638 2.10961 59.0604 2.12164C58.757 2.13368 58.4592 2.20695 58.1848 2.33704L56.5724 3.10159C56.2981 3.23168 56.0529 3.4159 55.8516 3.64317C55.6502 3.87045 55.4969 4.13609 55.4009 4.42413C55.3049 4.71217 55.2681 5.01665 55.2927 5.31927C55.3174 5.62189 55.4029 5.91641 55.5443 6.18511L65.5259 25.1553C65.7965 25.6695 66.2553 26.0592 66.8065 26.243C67.3577 26.4268 67.9587 26.3904 68.4837 26.1415Z" fill="#418DF9"/>
<path d="M78.9765 24.2283C79.3564 24.2012 79.7112 24.0284 79.9668 23.7459C80.2223 23.4633 80.3588 23.093 80.3477 22.7123L79.9343 8.66279C79.9284 8.46379 79.8824 8.26802 79.7989 8.08726C79.7155 7.90651 79.5963 7.74449 79.4487 7.61095C79.301 7.47741 79.1279 7.37511 78.9396 7.3102C78.7514 7.24528 78.552 7.21909 78.3535 7.23321L77.1862 7.31638C76.9876 7.33051 76.794 7.38463 76.6169 7.47549C76.4399 7.56635 76.283 7.69207 76.1557 7.84509C76.0285 7.99812 75.9335 8.17529 75.8764 8.36596C75.8194 8.55664 75.8015 8.75688 75.8237 8.95465L77.4045 22.9211C77.4472 23.2997 77.6347 23.6471 77.9276 23.8908C78.2206 24.1344 78.5964 24.2553 78.9765 24.2283V24.2283Z" fill="#418DF9"/>
<path d="M87.077 29.422C88.1221 30.0263 89.5893 29.4718 90.403 28.1648L104.853 4.95869C105.716 3.57238 105.511 1.88272 104.403 1.24182L102.858 0.348621C101.749 -0.292394 100.183 0.373212 99.4118 1.81289L86.5073 25.9121C85.7805 27.2694 86.0318 28.8177 87.077 29.422Z" fill="#418DF9"/>
</svg>
